<?xml version="1.0" encoding="UTF-8" standalone="no"?>
<!-- Created with Inkscape (http://www.inkscape.org/) -->

<svg
   xmlns:dc="http://purl.org/dc/elements/1.1/"
   xmlns:cc="http://creativecommons.org/ns#"
   xmlns:rdf="http://www.w3.org/1999/02/22-rdf-syntax-ns#"
   xmlns:svg="http://www.w3.org/2000/svg"
   xmlns="http://www.w3.org/2000/svg"
   xmlns:sodipodi="http://sodipodi.sourceforge.net/DTD/sodipodi-0.dtd"
   xmlns:inkscape="http://www.inkscape.org/namespaces/inkscape"
   version="1.1"
   width="1178"
   height="498"
   id="logo2"
   inkscape:version="0.48.4 r9939"
   sodipodi:docname="PrototypeLogo.svg">
  <sodipodi:namedview
     pagecolor="#ffffff"
     bordercolor="#666666"
     borderopacity="1"
     objecttolerance="10"
     gridtolerance="10"
     guidetolerance="10"
     inkscape:pageopacity="0"
     inkscape:pageshadow="2"
     inkscape:window-width="1858"
     inkscape:window-height="1057"
     id="namedview3001"
     showgrid="true"
     inkscape:zoom="0.71417785"
     inkscape:cx="746.75469"
     inkscape:cy="450.36355"
     inkscape:window-x="-8"
     inkscape:window-y="-8"
     inkscape:window-maximized="1"
     inkscape:current-layer="logo2"
     fit-margin-top="6"
     fit-margin-left="6"
     fit-margin-right="6"
     fit-margin-bottom="6" />
  <metadata
     id="metadata3033">
    <rdf:RDF>
      <cc:Work
         rdf:about="">
        <dc:format>image/svg+xml</dc:format>
        <dc:type
           rdf:resource="http://purl.org/dc/dcmitype/StillImage" />
        <dc:title />
      </cc:Work>
    </rdf:RDF>
  </metadata>
  <defs
     id="defs3031">
    <linearGradient
       id="linearGradient3803">
      <stop
         id="stop3805"
         style="stop-color:#000000;stop-opacity:1"
         offset="0" />
    </linearGradient>
  </defs>
  <g
     transform="translate(-111,-83.361871)"
     id="layer1"
     style="stroke:#000000;stroke-width:6;stroke-linejoin:round;stroke-miterlimit:4;stroke-opacity:1;stroke-dasharray:none" />
  <path
     d="m 489,289 200,0 0,120 -200,0 0,80 M 9,49 l 200,0 0,120 -200,0 0,80 m 1160,40 -200,0 0,60 200,0 0,60 -200,0 m -240,0 200,0 m -200,-60 200,0 m -200,-60 200,0 m -480,120 0,80 -200,0 m 0,-200 0,120 200,0 0,-120 m -240,0 -100,0 0,120 m 0,-160 0,40 -100,0 M 969,48.999997 969,169 l 200,0 0,-120.000003 z M 829,9 829,169 M 729,48.999997 l 200,0 m -440,0 L 489,169 689,169 689,48.999997 z M 249,169 l 0,-120.000003 200,0"
     id="path3773"
     style="fill:none;stroke:#000000;stroke-width:6;stroke-linecap:butt;stroke-linejoin:round;stroke-miterlimit:4;stroke-opacity:1;stroke-dasharray:none"
     inkscape:connector-curvature="0" />
</svg>
