<svg viewBox="0 0 1200 520" xmlns="http://www.w3.org/2000/svg" version="1.1" height="520" width="1200">
    <g transform="translate(-100,-72.361871)" style="stroke:#222222;stroke-width:6;stroke-linejoin:round;stroke-miterlimit:4;stroke-opacity:1;stroke-dasharray:none"></g>
    <path d="m 500,300 200,0 0,120 -200,0 0,80 M 20,60 l 200,0 0,120 -200,0 0,80 m 1160,40 -200,0 0,60 200,0 0,60 -200,0 m -240,0 200,0 m -200,-60 200,0 m -200,-60 200,0 m -480,120 0,80 -200,0 m 0,-200 0,120 200,0 0,-120 m -240,0 -100,0 0,120 m 0,-160 0,40 -100,0 M 980,59.999997 980,180 l 200,0 0,-120.000003 z M 840,20 840,180 M 740,59.999997 l 200,0 m -440,0 L 500,180 700,180 700,59.999997 z M 260,180 l 0,-120.000003 200,0" style="fill:none;stroke:#222222;stroke-width:6;stroke-linecap:butt;stroke-linejoin:round;stroke-miterlimit:4;stroke-opacity:1;stroke-dasharray:none"></path>
</svg>