<?xml version="1.0" encoding="UTF-8" standalone="no"?>
<!-- Created with Inkscape (http://www.inkscape.org/) -->

<svg
   xmlns:dc="http://purl.org/dc/elements/1.1/"
   xmlns:cc="http://creativecommons.org/ns#"
   xmlns:rdf="http://www.w3.org/1999/02/22-rdf-syntax-ns#"
   xmlns:svg="http://www.w3.org/2000/svg"
   xmlns="http://www.w3.org/2000/svg"
   version="1.1"
   width="1200"
   height="520"
   id="logo2">
  <metadata
     id="metadata3033">
    <rdf:RDF>
      <cc:Work
         rdf:about="">
        <dc:format>image/svg+xml</dc:format>
        <dc:type
           rdf:resource="http://purl.org/dc/dcmitype/StillImage" />
        <dc:title></dc:title>
      </cc:Work>
    </rdf:RDF>
  </metadata>
  <defs
     id="defs3031">
    <linearGradient
       id="linearGradient3803">
      <stop
         id="stop3805"
         style="stop-color:#000000;stop-opacity:1"
         offset="0" />
    </linearGradient>
  </defs>
  <g
     transform="translate(-100,-72.361871)"
     id="layer1"
     style="stroke:#fffafa;stroke-width:6;stroke-linejoin:round;stroke-miterlimit:4;stroke-opacity:1;stroke-dasharray:none" />
  <path
     d="m 500,300 200,0 0,120 -200,0 0,80 M 20,60 l 200,0 0,120 -200,0 0,80 m 1160,40 -200,0 0,60 200,0 0,60 -200,0 m -240,0 200,0 m -200,-60 200,0 m -200,-60 200,0 m -480,120 0,80 -200,0 m 0,-200 0,120 200,0 0,-120 m -240,0 -100,0 0,120 m 0,-160 0,40 -100,0 M 980,59.999997 980,180 l 200,0 0,-120.000003 z M 840,20 840,180 M 740,59.999997 l 200,0 m -440,0 L 500,180 700,180 700,59.999997 z M 260,180 l 0,-120.000003 200,0"
     id="path3773"
     style="fill:none;stroke:#fffafa;stroke-width:6;stroke-linecap:butt;stroke-linejoin:round;stroke-miterlimit:4;stroke-opacity:1;stroke-dasharray:none" />
</svg>
